<?xml version="1.0" standalone="no"?>
<!DOCTYPE svg PUBLIC "-//W3C//DTD SVG 20010904//EN"
 "http://www.w3.org/TR/2001/REC-SVG-20010904/DTD/svg10.dtd">
<svg version="1.0" xmlns="http://www.w3.org/2000/svg"
 width="3000.000000pt" height="2000.000000pt" viewBox="0 0 3000.000000 2000.000000"
 preserveAspectRatio="xMidYMid meet">
<metadata>
Created by potrace 1.16, written by Peter Selinger 2001-2019
</metadata>
<g transform="translate(0.000000,2000.000000) scale(0.100000,-0.100000)"
fill="#000000" stroke="none">
<path d="M26230 14063 c0 -967 -3 -1775 -6 -1795 l-7 -38 1117 0 1116 0 0
1795 0 1795 -1110 0 -1110 0 0 -1757z"/>
<path d="M8080 14900 l0 -140 50 0 50 0 0 -40 0 -40 -50 0 -50 0 0 -145 0
-145 50 0 50 0 0 -40 0 -40 -50 0 -50 0 0 -140 0 -140 50 0 50 0 0 -45 0 -45
-50 0 -50 0 0 -140 0 -140 50 0 50 0 0 -40 0 -40 -50 0 -50 0 0 -140 0 -140
39 0 c60 0 67 -5 63 -50 l-4 -40 -49 0 -49 0 0 -140 0 -140 50 0 50 0 0 -40 0
-40 -50 0 -50 0 0 -145 0 -145 50 0 50 0 0 -40 0 -40 -50 0 -50 0 0 -140 0
-140 50 0 50 0 0 -142 0 -143 20 33 c11 18 20 42 21 55 1 21 1 21 9 -3 7 -22
8 -22 9 -4 1 26 59 134 72 134 5 0 9 7 9 15 0 8 8 15 18 16 14 0 14 2 -3 8
-34 14 104 26 295 26 l175 0 2 -1935 2 -1935 21 -17 c33 -27 75 -23 99 8 l21
27 0 1928 0 1929 6694 0 c6712 0 6833 -1 6784 -32 -10 -6 -9 -8 2 -8 8 0 31
-23 50 -52 19 -29 43 -60 53 -70 9 -10 17 -22 17 -27 0 -6 23 -37 50 -70 28
-33 50 -65 50 -71 0 -6 5 -8 10 -5 6 4 10 -5 10 -20 0 -14 4 -24 9 -20 5 3 12
-3 14 -12 3 -10 5 73 6 185 l1 202 48 0 47 0 -3 139 -3 140 -42 3 c-41 3 -42
4 -45 41 l-3 37 45 0 46 0 0 145 0 145 -45 0 -45 0 0 40 0 40 44 0 45 0 3 140
3 139 -45 3 -45 3 0 40 c0 40 0 40 42 43 l42 3 3 140 3 139 -47 0 -48 0 0 40
0 40 45 0 45 0 0 139 0 140 -42 3 c-43 3 -43 3 -43 43 0 40 0 40 43 43 l42 3
0 140 0 139 -45 0 -45 0 0 40 0 40 45 0 45 0 0 145 0 145 -45 0 -45 0 0 40 0
40 45 0 45 0 0 140 0 140 -7355 0 -7355 0 0 -140z m720 -550 l0 -40 -157 0
-158 0 0 40 0 40 158 0 157 0 0 -40z m3612 0 l4 -40 -1733 0 -1733 0 0 40 0
40 1729 0 1729 0 4 -40z m6165 -2 l2 -38 -2987 0 -2988 0 2 28 c1 15 3 33 3
40 1 10 601 12 2984 10 l2982 -3 2 -37z m3793 2 l0 -40 -1815 0 -1815 0 0 40
0 40 1815 0 1815 0 0 -40z m-13570 -360 l0 -40 -158 0 -157 0 1 33 c1 17 2 35
3 40 0 4 71 7 156 7 l155 0 0 -40z m3608 -2 l-3 -43 -232 0 c-128 0 -906 1
-1728 3 l-1495 2 0 33 c0 19 3 37 7 40 3 4 782 7 1730 7 l1724 0 -3 -42z
m6138 0 l2 -37 -112 -3 c-61 -2 -1399 -2 -2972 0 l-2862 4 3 36 c1 20 3 38 4
40 0 1 1336 1 2969 0 l2967 -3 1 -37z m3824 3 c0 -28 -5 -41 -17 -46 -10 -3
-151 -4 -313 -1 -162 3 -971 5 -1797 6 l-1503 0 0 33 c0 19 3 37 7 40 3 4 820
7 1815 7 l1808 0 0 -39z m-13570 -371 l0 -40 -158 0 -157 0 -1 40 -1 40 159 0
158 0 0 -40z m3610 0 l0 -40 -1730 0 -1730 0 0 40 0 40 1730 0 1730 0 0 -40z
m6140 0 l0 -40 -2973 0 -2973 0 0 40 1 40 2973 0 2972 0 0 -40z m3810 0 l0
-40 -1810 0 -1810 0 0 40 0 40 1810 0 1810 0 0 -40z m-9950 -330 c3 0 4 -18 2
-40 l-4 -40 -1729 0 -1729 0 0 40 0 40 1228 3 c927 2 2138 0 2232 -3z m6027 1
l113 -1 -4 -37 -3 -38 -2969 0 -2969 0 0 35 0 35 2210 5 c1941 4 3262 5 3622
1z m3926 -1 c5 0 7 -17 5 -37 l-3 -38 -1811 -3 -1812 -2 -4 40 -4 40 1346 3
c1035 2 2043 1 2283 -3z m-13563 -40 l0 -41 -157 3 -158 3 -1 38 -1 37 158 0
159 0 0 -40z m5 -360 l0 -35 -161 -3 -162 -2 0 40 -1 40 162 -2 162 -3 0 -35z
m3605 0 l0 -40 -1730 0 -1730 0 0 40 0 40 1730 0 1730 0 0 -40z m6137 0 l2
-40 -2974 0 -2974 0 1 40 0 40 2972 0 2971 0 2 -40z m3813 0 l0 -40 -1809 0
-1809 0 -4 40 -4 40 1813 0 1813 0 0 -40z m-13550 -357 c0 -53 -4 -54 -171
-51 l-154 3 -3 38 -3 37 165 0 166 0 0 -27z m3600 -13 l0 -40 -1730 0 -1730 0
0 40 0 40 1730 0 1730 0 0 -40z m6138 3 l-3 -38 -2970 0 -2970 0 -3 38 -3 37
2976 0 2976 0 -3 -37z m3812 -3 l0 -40 -1810 0 -1810 0 0 40 0 40 1810 0 1810
0 0 -40z"/>
<path d="M4779 14525 c-207 -33 -399 -133 -542 -284 -117 -125 -191 -257 -234
-418 -35 -135 -37 -325 -4 -458 75 -307 310 -569 603 -674 115 -41 151 -46
323 -46 148 0 181 3 250 23 241 69 459 241 579 455 201 358 141 826 -142 1115
-226 232 -525 334 -833 287z m379 -124 c282 -82 499 -301 583 -587 26 -91 36
-260 19 -361 -42 -266 -213 -504 -445 -621 -33 -16 -98 -42 -145 -57 -115 -37
-299 -46 -416 -20 -505 110 -794 613 -633 1100 93 280 331 494 624 561 91 21
319 12 413 -15z"/>
<path d="M4870 13850 l0 -280 209 0 c175 0 210 2 215 15 4 12 -23 15 -192 17
l-197 3 -3 263 c-2 224 -4 262 -17 262 -13 0 -15 -39 -15 -280z"/>
<path d="M23975 10673 c-308 -18 -566 -36 -573 -38 -9 -3 -5 -12 13 -29 15
-14 24 -29 21 -34 -3 -5 6 -20 20 -33 15 -13 41 -46 59 -74 18 -27 42 -60 54
-72 11 -12 21 -25 21 -29 0 -4 7 -16 17 -26 15 -17 13 -18 -60 -18 -69 0 -77
-2 -77 -19 0 -10 9 -29 20 -42 15 -19 22 -21 28 -11 6 9 14 -1 27 -34 10 -26
35 -65 56 -85 23 -22 36 -44 33 -52 -3 -9 7 -24 23 -37 15 -12 35 -36 43 -53
8 -18 25 -36 37 -41 12 -6 26 -26 33 -48 6 -21 24 -50 40 -64 15 -14 31 -37
34 -50 4 -13 13 -24 21 -24 8 0 15 -7 15 -17 0 -9 13 -28 28 -42 15 -14 36
-44 45 -66 10 -22 31 -55 47 -74 17 -18 30 -40 30 -47 0 -7 12 -22 28 -34 15
-12 34 -36 42 -53 8 -18 25 -36 37 -41 12 -6 26 -26 33 -48 6 -21 24 -50 40
-64 15 -14 31 -37 34 -50 4 -13 11 -24 16 -24 6 0 10 -8 10 -18 0 -25 28 -62
48 -62 10 0 26 -19 39 -48 12 -26 27 -54 32 -62 5 -8 13 -28 16 -44 l6 -28 21
23 c18 21 20 22 15 4 -4 -11 -3 -36 2 -55 7 -32 8 -28 15 40 4 41 11 92 14
113 l7 38 45 -61 c25 -34 50 -67 55 -73 33 -39 65 -87 58 -87 -4 0 -1 -5 8
-10 9 -5 20 -27 24 -47 8 -45 32 -93 46 -93 6 0 7 -4 4 -10 -3 -5 -2 -10 3
-10 6 0 19 -15 31 -32 11 -18 26 -42 33 -53 7 -11 21 -27 31 -36 9 -9 17 -21
17 -27 0 -6 5 -14 10 -17 7 -4 10 358 10 1079 l0 1086 -162 -1 c-90 -1 -415
-17 -723 -36z"/>
<path d="M4820 9318 l0 -1335 -36 -38 c-20 -21 -40 -49 -45 -62 -17 -44 -29
-24 -29 47 0 77 -20 140 -44 140 -19 0 -62 -45 -77 -82 -6 -15 -14 -28 -18
-28 -3 0 -14 18 -24 40 -14 30 -25 40 -42 40 -30 0 -50 -33 -73 -116 -17 -61
-19 -65 -25 -38 -3 16 -21 52 -39 79 -94 142 -155 -45 -78 -242 l31 -83 170 0
c106 0 169 4 169 10 0 6 5 10 11 10 5 0 7 -4 4 -10 -4 -6 19 -10 63 -10 68 0
69 0 88 35 l19 35 72 0 c74 0 87 3 976 203 l147 33 1 -45 c0 -64 12 -116 26
-118 11 -2 73 79 73 96 0 4 9 17 20 29 14 14 16 22 8 22 -7 0 -2 9 11 19 16
12 20 21 12 25 -18 12 -13 31 29 104 22 38 40 74 40 80 0 27 64 71 133 92 40
11 82 25 95 30 13 6 34 10 47 10 13 0 26 4 29 9 4 5 -2 7 -12 4 -10 -2 -34 0
-53 5 -19 6 -26 11 -17 11 22 1 48 39 48 69 0 12 7 25 15 28 8 4 15 12 15 19
0 7 7 18 15 25 7 6 17 32 21 56 3 24 11 44 18 44 11 0 23 20 68 112 13 28 30
48 39 48 19 0 53 73 38 78 -13 5 10 32 27 32 8 0 14 10 14 25 0 14 4 25 9 25
5 0 17 21 27 48 9 26 23 52 31 58 7 6 13 25 13 42 0 21 7 35 20 42 11 6 20 20
20 30 0 13 7 20 20 20 16 0 20 7 20 35 0 23 8 42 25 59 14 14 25 34 25 46 0
11 5 20 11 20 8 0 7 6 -2 17 -12 15 -12 16 4 10 11 -4 17 -2 17 7 0 7 11 23
25 36 43 40 28 57 -15 18 -42 -38 -231 -200 -287 -246 -29 -24 -53 -39 -53
-34 0 6 4 13 9 16 15 10 83 117 78 123 -3 3 96 108 221 234 124 126 230 235
234 244 5 8 14 15 19 15 6 0 18 8 27 17 16 16 16 16 -2 10 -14 -6 -17 -4 -12
8 3 9 2 13 -4 10 -6 -3 -10 -1 -10 5 0 6 12 15 26 20 19 8 24 15 19 29 -4 15
0 20 17 23 13 2 24 11 26 23 4 20 4 20 -11 0 -9 -11 -18 -17 -22 -13 -6 6 28
59 37 59 2 0 14 2 26 6 18 4 20 8 10 15 -10 7 -9 11 6 23 11 8 17 17 14 20 -5
5 -14 -3 -98 -78 -20 -18 -73 -66 -119 -107 -118 -105 -115 -102 -144 -129
-25 -23 -26 -23 -24 -3 0 11 5 18 9 16 4 -3 8 2 8 10 0 9 5 16 11 16 6 0 8 9
4 22 -6 17 -4 20 10 14 12 -4 16 -2 12 8 -3 8 -1 17 6 20 8 3 8 5 -2 5 -11 1
-11 4 -1 16 7 8 16 13 20 10 4 -3 8 6 8 20 0 15 -5 22 -12 18 -11 -6 75 85
277 292 59 61 107 114 107 118 0 4 -18 7 -40 7 -42 0 -49 9 -25 33 11 12 12
17 2 20 -6 3 -3 6 7 6 11 1 17 4 13 7 -3 3 10 31 29 62 19 32 34 62 34 69 0 6
7 18 15 26 12 13 9 16 -28 21 -84 11 -598 43 -1382 86 -198 11 -387 22 -420
24 -33 3 -114 8 -180 11 -66 4 -174 10 -240 15 -66 5 -196 12 -288 16 l-167 7
0 -1335z"/>
<path d="M26936 9853 c-31 -153 -76 -485 -76 -559 0 -180 63 -302 196 -380 24
-14 44 -29 44 -32 0 -4 7 -72 15 -152 8 -80 17 -173 21 -207 l6 -63 -49 0 -49
0 -37 64 c-36 61 -37 64 -22 92 21 41 19 139 -5 191 -28 62 -75 116 -139 161
-64 45 -162 96 -204 106 -24 6 -28 4 -23 -11 95 -312 101 -327 144 -386 39
-55 112 -97 166 -97 32 0 39 -5 71 -55 19 -31 35 -57 35 -59 0 -2 -44 -6 -97
-10 -106 -7 -143 -14 -143 -27 0 -17 104 -24 355 -24 251 0 355 7 355 24 0 16
-44 22 -183 28 l-138 6 7 31 c3 17 15 60 26 94 l19 64 37 -9 c145 -33 276 20
389 159 20 25 204 295 246 362 l19 29 -94 -7 c-127 -9 -236 -38 -343 -90 -111
-54 -172 -106 -215 -187 -28 -53 -34 -77 -40 -153 -4 -50 -19 -131 -33 -180
-15 -48 -27 -94 -27 -102 0 -8 -4 -14 -9 -14 -5 0 -12 35 -16 78 -4 42 -12
137 -19 211 l-12 133 41 43 c49 50 90 105 78 105 -4 0 -2 4 5 8 7 5 22 35 33
68 31 88 23 227 -20 345 -35 96 -104 218 -149 267 -17 18 -28 32 -25 32 3 0
-23 29 -58 65 -34 36 -66 65 -70 65 -4 0 -10 -12 -13 -27z"/>
<path d="M2273 9380 c-118 -24 -193 -138 -163 -249 41 -152 261 -203 376 -87
67 66 79 138 40 223 -28 58 -77 96 -148 113 -49 11 -48 11 -105 0z"/>
<path d="M1355 9369 c-40 -11 -102 -63 -122 -102 -9 -17 -16 -54 -17 -82 -2
-135 139 -231 279 -191 102 30 163 115 153 211 -15 125 -156 205 -293 164z"/>
<path d="M12154 8811 c-102 -26 -198 -105 -242 -199 -15 -32 -164 -468 -332
-970 l-305 -912 -787 0 c-743 0 -788 1 -789 18 -1 9 0 26 1 36 3 35 -11 106
-21 101 -5 -4 -6 -11 -3 -17 4 -7 2 -8 -4 -4 -11 7 -111 -46 -197 -104 -32
-22 -56 -28 -118 -33 -111 -8 -170 -48 -186 -128 -6 -31 -30 -47 -344 -243
l-337 -211 0 -65 c0 -36 16 -490 35 -1010 19 -520 35 -960 35 -977 l0 -33 664
0 665 0 6 21 c9 26 -5 266 -16 297 -5 12 -9 71 -10 130 0 59 -5 115 -11 126
-7 13 -7 16 1 12 7 -5 11 1 11 14 0 12 -4 19 -9 15 -6 -3 -9 21 -9 57 2 64
-17 308 -28 364 l-6 31 63 6 c34 4 77 7 95 7 l34 0 0 -910 0 -910 -527 0
c-439 1 -532 3 -553 15 -41 23 -148 19 -192 -8 -84 -51 -100 -106 -95 -317 4
-161 11 -185 71 -238 87 -76 252 -46 302 55 15 30 20 65 22 166 l4 127 421 0
422 0 -3 -215 c-3 -196 -1 -218 17 -252 41 -80 108 -118 196 -111 67 6 119 42
153 109 22 42 23 52 20 257 l-3 212 407 0 407 0 3 -153 c3 -152 3 -154 32
-191 52 -69 160 -96 243 -61 96 40 112 84 113 290 0 178 -7 215 -47 258 -59
61 -34 59 -634 58 l-549 -2 0 911 0 910 538 0 c515 0 541 1 598 20 113 39 201
115 241 210 9 19 238 701 511 1515 490 1464 496 1481 496 1560 -1 107 -28 176
-100 254 -73 79 -149 114 -259 117 -44 2 -94 0 -111 -5z m-994 -2418 c0 -4
-41 -130 -91 -280 l-91 -273 -604 0 -604 0 0 33 c-1 33 -2 46 -19 252 -6 66
-13 155 -16 198 l-5 77 715 0 c393 0 715 -3 715 -7z"/>
<path d="M16390 8770 c0 -20 7 -20 793 -21 435 -1 835 -4 889 -8 53 -3 94 -3
91 2 -2 4 14 7 36 7 34 0 41 3 41 20 0 20 -7 20 -925 20 -918 0 -925 0 -925
-20z"/>
<path d="M13420 8678 c0 -7 -31 -211 -69 -453 -84 -528 -95 -628 -88 -765 8
-149 30 -239 90 -360 44 -89 64 -118 137 -190 63 -63 105 -96 162 -125 67 -34
79 -44 83 -70 8 -44 75 -732 75 -766 l0 -29 -88 0 c-56 0 -94 5 -104 13 -8 6
-41 55 -72 107 l-56 95 25 70 c46 132 42 268 -11 384 -25 56 -114 178 -161
222 -64 59 -194 150 -283 197 -93 49 -268 117 -278 108 -9 -10 165 -569 204
-654 96 -211 246 -323 449 -335 39 -2 41 -3 103 -107 l63 -105 -128 -7 c-147
-7 -292 -24 -328 -38 -36 -14 -31 -35 13 -48 94 -27 283 -37 692 -36 413 1
582 12 663 43 93 36 -88 69 -475 87 -134 6 -138 7 -138 28 0 47 78 308 99 329
4 4 43 -2 87 -14 170 -47 383 -4 531 107 135 101 200 184 493 623 l222 334
-158 -6 c-88 -3 -197 -13 -244 -22 -398 -77 -719 -260 -849 -484 -73 -125
-103 -246 -100 -401 2 -84 -1 -104 -28 -175 -25 -67 -58 -187 -79 -292 -4 -22
-28 -31 -37 -15 -3 4 -10 75 -16 157 -16 205 -50 584 -56 617 -4 23 8 39 84
115 97 98 145 164 195 274 91 200 95 400 13 674 -26 90 -62 167 -72 157 -5 -4
-5 -1 -1 6 15 25 -155 339 -177 325 -6 -3 -7 -1 -3 5 13 21 -159 230 -297 362
-74 70 -87 79 -87 58z"/>
<path d="M16390 8601 c0 -19 20 -19 888 -23 488 -2 904 -1 925 1 28 2 37 7 37
22 0 19 -24 19 -925 19 -906 0 -925 0 -925 -19z"/>
<path d="M17375 8040 c-67 -14 -154 -60 -200 -107 -57 -57 -103 -153 -111
-232 l-7 -61 -333 0 c-327 0 -334 0 -334 -20 0 -20 7 -20 334 -20 l334 0 20
-62 19 -63 -353 -3 c-346 -2 -354 -3 -354 -22 0 -20 8 -20 363 -20 l362 -1
149 -442 c81 -243 150 -449 152 -457 5 -17 -30 -61 -63 -78 -12 -7 -45 -12
-73 -12 -58 0 -85 11 -118 49 -29 33 -31 45 -34 166 l-3 100 -55 7 c-30 4 -78
10 -107 12 -28 3 -71 12 -95 21 -34 12 -96 15 -295 15 l-253 0 0 -1385 0
-1385 940 0 940 0 0 155 c0 85 4 155 9 155 5 0 14 -6 20 -14 7 -8 47 -30 89
-48 l77 -33 563 -3 562 -3 0 -929 0 -930 -574 -2 -574 -3 -39 -31 c-21 -16
-48 -50 -60 -74 -21 -41 -23 -58 -23 -207 0 -182 7 -214 63 -271 67 -69 207
-71 280 -3 55 50 61 74 64 230 1 79 4 145 6 147 2 2 189 4 416 4 l412 1 -1
-223 c0 -213 0 -225 22 -268 73 -143 282 -141 353 4 26 53 26 54 23 270 l-3
216 431 0 432 0 4 -133 c4 -142 12 -169 65 -219 38 -37 73 -48 147 -48 51 0
70 5 107 29 73 46 83 78 87 267 4 185 -4 228 -53 283 -53 58 -154 79 -232 46
-30 -13 -118 -15 -573 -15 l-537 0 -7 268 c-3 147 -6 565 -6 930 l1 662 217 0
217 0 0 -102 c3 -1129 6 -1307 23 -1312 24 -7 1008 -156 1031 -156 18 0 19 26
25 848 3 466 8 1101 11 1412 3 311 6 754 6 985 l1 420 -403 202 c-376 187
-701 343 -716 343 -6 0 2 -952 8 -980 4 -13 -98 -15 -857 -18 l-861 -2 -126
378 c-122 361 -127 381 -127 460 l0 82 -28 0 c-27 0 -29 5 -71 131 -37 112
-41 135 -32 157 11 23 11 24 -5 11 -16 -12 -17 -12 -11 3 3 9 2 18 -3 20 -5 2
-16 28 -24 58 -8 30 -22 75 -31 100 -9 25 -17 53 -18 62 -1 10 -5 18 -10 18
-5 0 -7 9 -4 20 3 11 1 18 -4 14 -5 -3 -9 2 -9 10 0 9 9 15 23 14 12 0 77 0
145 1 115 1 122 2 122 21 0 19 -7 20 -137 21 -76 1 -143 1 -149 0 -17 -2 -30
19 -47 77 l-15 52 174 0 c167 0 174 1 174 20 0 19 -7 20 -167 21 -93 1 -172 1
-177 0 -5 -1 -6 9 -4 23 3 14 1 23 -3 20 -5 -3 -9 -12 -9 -20 0 -34 -20 1 -45
81 -46 143 -122 230 -242 275 -65 24 -159 33 -218 20z m2797 -2772 c3 -156 4
-286 2 -290 -4 -7 -1414 -11 -1414 -5 0 2 -43 130 -95 285 -52 156 -95 285
-95 287 0 3 359 5 799 5 l798 0 5 -282z"/>
<path d="M25750 7516 c0 -1 11 -15 24 -29 29 -31 45 -115 24 -129 -10 -7 -9
-8 5 -4 9 3 17 1 17 -4 0 -6 269 -10 740 -10 l740 0 0 -130 0 -130 -745 0
-745 0 0 116 c0 102 -2 115 -16 110 -9 -3 -20 -6 -25 -6 -4 0 -6 -6 -4 -12 3
-8 -16 -23 -48 -37 -61 -28 -225 -41 -239 -18 -5 8 -8 6 -8 -8 -1 -36 -17 5
-25 63 l-7 52 -221 1 c-122 1 -286 4 -365 8 -79 3 -153 3 -164 -2 -12 -4 -35
-9 -52 -12 -28 -3 -249 -49 -441 -91 -88 -19 -96 -24 -119 -64 -13 -22 -16
-34 -8 -39 6 -4 184 -42 394 -85 211 -43 511 -105 668 -137 l285 -59 1528 0
1527 0 0 330 0 330 -1360 0 c-748 0 -1360 -2 -1360 -4z"/>
<path d="M5796 7474 c-157 -43 -286 -128 -286 -188 0 -29 33 -59 91 -85 51
-23 144 -40 119 -22 -13 9 -13 11 1 11 15 0 24 15 107 175 20 39 40 72 44 73
4 2 6 8 2 13 -3 5 0 9 6 9 6 0 8 5 5 10 -3 6 -1 10 4 10 6 0 11 5 11 10 0 13
1 13 -104 -16z"/>
<path d="M8240 7383 c-36 -13 -69 -28 -74 -34 -6 -5 -22 -9 -36 -9 -14 0 -30
-4 -35 -8 -6 -5 -30 -14 -55 -22 -25 -7 -59 -19 -77 -26 -17 -8 -36 -14 -42
-14 -6 0 -11 -4 -11 -9 0 -5 -17 -12 -37 -15 -21 -4 -66 -16 -99 -27 -45 -14
-96 -21 -190 -23 -114 -3 -148 -8 -229 -30 -11 -3 -60 -14 -110 -24 -114 -24
-224 -52 -250 -63 -11 -5 -49 -10 -85 -12 -36 -2 132 -4 373 -5 l437 -2 0 48
0 47 63 24 c34 13 76 29 92 37 17 7 66 27 110 44 44 18 98 40 121 50 22 11 63
28 90 39 138 55 175 83 44 34z"/>
<path d="M21505 7339 c44 -21 105 -48 135 -60 30 -11 69 -27 85 -34 33 -15
107 -47 115 -50 3 -1 18 -7 33 -13 16 -7 36 -12 45 -13 11 0 12 -3 5 -6 -22
-8 -14 -20 10 -16 12 2 38 -3 57 -11 19 -8 31 -15 25 -16 -5 0 1 -7 13 -16 12
-8 26 -13 32 -9 5 3 20 3 34 -1 17 -4 23 -11 19 -22 -4 -10 -2 -13 5 -8 8 5
11 -1 10 -17 -1 -16 -7 -23 -16 -19 -11 4 -11 6 0 13 9 6 9 9 1 9 -21 0 -25
-21 -7 -35 16 -12 98 -14 462 -15 l443 0 -3 47 -3 46 -295 99 c-162 54 -335
110 -385 124 -49 15 -103 32 -120 39 -16 7 -50 13 -74 14 -24 1 -47 2 -50 3
-3 0 -15 0 -26 -1 -21 -2 -9 -9 75 -43 83 -35 87 -37 65 -37 -12 -1 -26 4 -32
10 -7 7 -13 7 -17 1 -3 -6 11 -16 31 -23 21 -6 58 -22 83 -35 25 -13 61 -24
80 -24 21 0 30 -3 23 -8 -9 -5 -1 -12 23 -21 19 -7 34 -15 32 -17 -2 -2 -28 5
-56 16 -29 11 -64 20 -79 20 -14 0 -23 3 -19 7 6 7 -31 23 -144 63 -51 18 -98
20 -220 11 l-25 -2 25 -14 c14 -8 34 -12 45 -9 14 4 16 3 7 -4 -9 -6 0 -14 33
-26 25 -10 44 -21 41 -24 -3 -3 -16 0 -29 6 -12 6 -57 24 -99 40 -65 25 -89
29 -145 26 l-68 -4 40 14 40 14 -51 1 c-49 1 -88 10 -217 52 -84 28 -82 22 8
-22z"/>
<path d="M22755 7352 c32 -28 249 -84 438 -114 118 -18 186 -22 402 -22 273
-1 363 8 460 46 51 20 108 65 100 79 -3 4 1 9 7 11 7 3 -2 5 -20 5 -23 0 -29
-3 -20 -9 9 -6 4 -8 -14 -4 -43 10 -1363 17 -1353 8z"/>
<path d="M8 4778 c-2 -1046 -2 -2343 0 -2880 l2 -978 1750 0 c963 0 1750 -4
1750 -8 0 -4 26 -5 58 -1 31 4 843 8 1805 8 l1747 1 0 558 c0 2221 -1 2450
-20 3217 -10 440 -24 1032 -30 1315 -6 283 -13 543 -16 578 l-6 62 -556 0
c-306 0 -1224 5 -2039 10 -844 5 -1494 5 -1511 0 -17 -4 -32 -5 -34 0 -2 4
-654 11 -1450 15 l-1448 7 -2 -1904z"/>
<path d="M21660 6578 c0 -57 -14 -947 -30 -1978 -19 -1196 -30 -2200 -30
-2774 0 -495 1 -901 3 -903 3 -2 5944 -5 7090 -3 l27 0 0 2880 0 2880 -3530 0
-3530 0 0 -102z"/>
<path d="M12980 5418 c0 -2 21 -124 46 -273 25 -148 50 -305 56 -347 6 -43 14
-78 19 -78 5 0 6 -6 3 -14 -3 -7 2 -51 10 -97 9 -46 20 -121 25 -166 13 -100
44 -167 111 -234 79 -79 88 -81 577 -77 l418 3 48 28 c85 50 167 183 167 272
0 28 -4 33 -20 32 -11 -1 -20 -5 -20 -9 0 -7 -30 -23 -95 -49 -38 -15 -126
-29 -186 -29 -205 0 -441 89 -633 239 -25 19 -145 140 -166 167 -36 46 -108
153 -129 194 -51 95 -111 225 -111 238 0 13 -70 175 -82 189 -9 11 -38 19 -38
11z"/>
</g>
</svg>
